<svg height="512" viewBox="0 0 56 58" width="512" xmlns="http://www.w3.org/2000/svg"><g id="Page-1" fill="none" fill-rule="evenodd"><g id="030---Cake" fill="rgb(0,0,0)" fill-rule="nonzero"><path id="Shape" d="m23.442 12.855c.4728776 1.2041786 1.2337505 2.2740704 2.216 3.116 1.490143.055019 2.9822556.0189518 4.468-.108 1.6912114-.8173137 2.961221-2.3075793 3.5-4.107.0272826-.1070765.0486482-.2155741.064-.325.244-1.391-.166-2.925-1.41-3.245-.6419103-.16455639-1.3190759-.12577136-1.938.111-.361665-2.35197884.8476013-4.66599191 2.985-5.712 1.9602232-.92009391 4.260821-.73525501 6.049.486.4484552.32253429 1.0734657.22045522 1.396-.228s.2204552-1.07346571-.228-1.396c-2.3861466-1.65797131-5.4784577-1.90802857-8.1-.655-2.9023401 1.4044031-4.5589304 4.52857132-4.093 7.719-.0823719-.07799829-.150108-.17011939-.2-.272-.4227271-.82000293-1.1694055-1.42561388-2.059-1.67-1.331-.34-2.527.985-2.912 2.464-.2957709 1.2544812-.2065575 2.5689854.256 3.772-.004.017.002.034.006.05z"/><path id="Shape" d="m28 20c9.913 0 16-2.912 16-5 0-1.439-2.83-3.315-8.248-4.323-.0001379.3546151-.030582.7085697-.091 1.058-.023408.1767455-.0567947.3520254-.1.525-.3198704 1.1267701-.8712828 2.1744197-1.619 3.076.262-.051.523-.1.79-.156.353084-.0847969.7243885.0284728.9700195.295913.2456311.2674402.3269829.6470174.2125288.9916319-.1144541.3446144-.4067254.6001032-.7635483.6674551-1.5404089.3309362-3.0996717.5670465-4.669.707h-.012c-1.282.116-2.457.16-3.48.16-1.4630255.0159354-2.9250816-.081691-4.373-.292-.5437538-.0931758-.9093323-.6091024-.817-1.153.0796809-.4635377.4777333-.8049054.948-.813-.5009088-.6880542-.9047002-1.4417981-1.2-2.24-.007-.018-.013-.036-.019-.054-.3306406-.9356126-.5033312-1.9197121-.511-2.912-5.866.962-9.018 2.962-9.018 4.462 0 2.088 6.087 5 16 5z"/><path id="Shape" d="m54.988 44.176c-.251 6.381-14.019 9.824-26.988 9.824s-26.737-3.443-26.988-9.824c-.62662215.8111004-.98082772 1.799516-1.012 2.824 0 5.962 12.822 11 28 11s28-5.038 28-11c-.0311723-1.024484-.3853779-2.0128996-1.012-2.824z"/><path id="Shape" d="m12.06 28.6c.042 2.522-1.078 4.7-1.358 6.88-.1929751 1.2075267.0774121 2.443378.757 3.46.2178568.2295383.5364135.3343464.848.279.961-.106 1.455-1.8 1.721-2.67.2658309-1.1151353.7719522-2.158776 1.483-3.058 2.378-2.712 7.075-.708 5.975 4.267-.487 2.215-2.59 5.438-.882 7 .654928.508661 1.5478593.58428 2.279.193 3.524-1.762.389-7.587 3.922-8.929.9033055-.3268046 1.9046315-.2397646 2.738.238 3.319 1.812 1.826 6.147 4.005 7.811.5856837.4069851 1.3270349.5192396 2.0069518.3038902.6799169-.2153495 1.2214628-.7339347 1.4660482-1.4038902.611-1.846-1.337-4.094-1.634-6.533-.290678-1.7139255.5698512-3.4171408 2.122-4.2 1.1728862-.4009423 2.4693328-.1746206 3.437.6 1.588 1.14 2.172 3.05 3.741 3.943.984.566 1.745-.153 1.694-1.192-.072-1.319-1.353-2.744-1.517-4.558-.1774282-1.9147245.9014793-3.7250263 2.67-4.48l-2.759-8.892c-5.622 5.729-27.839 5.821-33.55 0l-1.933 6.228c1.7015899.9604275 2.7579707 2.7590992 2.768 4.713z"/><path id="Shape" d="m28 52c14.555 0 24.751-4.115 25-7.863l-4.864-15.658c-.1585784.0765264-.3081628.1704359-.446.28-.5892285.5234568-.8981152 1.2934514-.834 2.079.124 1.373 1.419 2.751 1.523 4.638.1548846 1.1820904-.3840803 2.3478364-1.3849594 2.9955771-1.0008791.6477408-2.2851087.6619149-3.3000406.0364229-2.144-1.223-2.607-3.117-3.928-4.066-.4190306-.3572382-.9855505-.4885186-1.519-.352-.6883428.4641828-1.0321583 1.2951686-.873 2.11.251 2.074 2.459 4.635 1.545 7.394-.4485638 1.2831943-1.4774641 2.2787247-2.7747452 2.684753s-2.7101576.1747351-3.8102548-.623753c-2.906-2.222-1.572-6.457-3.754-7.647-.3165811-.1911819-.699836-.2377693-1.053-.128-1.511.574.714 6.622-3.75 8.854-1.1771125.6508575-2.6060089.6515161-3.7837208.001744-1.177712-.6497721-1.9391461-1.8588889-2.0162792-3.201744-.3-3.317 2.64-6.229 1.373-8.484-.2092801-.4297394-.6257656-.7208255-1.1012524-.7696769-.4754867-.0488514-.9424592.1514685-1.2347476.5296769-.882 1-1.1 2.979-1.872 4.405-1.323 2.412-3.753 2.5-5.106 1.125-1.385-1.406-1.466-3.963-1.315-5.119.287-2.26 1.377-4.509 1.341-6.584-.0069949-1.1006022-.50904401-2.1395904-1.367-2.829l-5.69 18.329c.244 3.748 10.44 7.863 24.995 7.863z"/></g></g></svg>