<svg height="512" viewBox="0 0 57 58" width="512" xmlns="http://www.w3.org/2000/svg"><g id="Page-1" fill="none" fill-rule="evenodd"><g id="044---Fruity-Drink" fill="rgb(0,0,0)" fill-rule="nonzero" transform="translate(-1 -1)"><path id="Shape" d="m3 5.563c.013 0 1.411.252 4.669 3.6.25008591.2559808.61773895.35909756.96446778.2705072.34672883-.08859035.61985709-.35542885.7165-.7.09664292-.34457115.00211813-.7145264-.24796778-.9705072-3.795-3.894-5.568-4.2-6.02-4.2-.56075681-.00409908-1.02257568.43953095-1.041 1-.00947313.26090453.08717224.51451423.26787791.70294558.18070567.18843136.43004967.29560307.69112209.29705442z"/><path id="Shape" d="m16.25 16.33c-.1882181.2138977-.2788093.4965423-.25.78l.75 6.7 2.7 1.35c2.2365036 1.1100495 4.8634964 1.1100495 7.1 0 1.3799139-.6956478 2.9046655-1.0554207 4.45-1.05 1.0740074-.0023228 2.1412534.1699226 3.16.51.4391194.1489264.8669006.3293966 1.28.54.0263481.0071808.0504367.0209457.07.04.16.08.32.15.49.22 2.1177593.8474356 4.4961982.7528799 6.54-.26l2.71-1.35.75-6.7c.0314024-.283696-.059921-.5672904-.2509683-.7793529-.1910473-.2120624-.4636082-.3323798-.7490317-.3306471h-5.52l2.35-6.36 9.74-6.82c.2196128-.14948555.3698521-.38103832.4168783-.64250391.0470261-.26146559-.0131153-.53085662-.1668783-.74749609-.1494856-.21961281-.3810383-.36985207-.6425039-.41687826-.2614656-.04702618-.5308566.01311528-.7474961.16687826l-10 7c-.1683982.11524642-.2975091.27925209-.37.47l-2.72 7.35h-20.34c-.2850841.00058-.5569687.1202092-.75.33z"/><path id="Shape" d="m49.02 54.95c1.9590959-.1862883 3.8182225-.9522206 5.34-2.2l-5.35-5.34z"/><path id="Shape" d="m47.01 47.41-5.33 5.32c1.520291 1.253465 3.3791532 2.0262503 5.34 2.22z"/><path id="Shape" d="m40.27 51.32 5.33-5.33-7.55-.01c.1937497 1.9608468.966535 3.819709 2.22 5.34z"/><path id="Shape" d="m38.05 43.98 7.54.01-5.34-5.35c-1.2477794 1.5217775-2.0137117 3.3809041-2.2 5.34z"/><path id="Shape" d="m10.73 7.3c.710654-.14196799 1.368215-.47767018 1.9-.97.4894348-.53244778.8217325-1.19012029.96-1.9.0729558-.33191572-.0290732-.678077-.2703875-.91736345s-.5883242-.33839068-.9196125-.26263655c-.706142.1405472-1.3600031.47266716-1.89.96-.4923298.53178504-.82803201 1.18934602-.97 1.9-.07249243.3326392.02922776.67930783.26995997.92004003.24073223.24073221.58740083.3424524.92004003.26995997z"/><circle id="Oval" cx="23.5" cy="33.5" r="1.5"/><path id="Shape" d="m32 44.97c-.0134697-3.8392489 1.3609326-7.5540416 3.87-10.46.3706461-.4298784.9028651-.6869365 1.47-.71.5516819-.0053802 1.0833218.2065573 1.48.59l4.73 4.72 1.44-12.93-1.55.77c-2.540342 1.2565235-5.4936151 1.3800306-8.13.34-.25-.1-.5-.21-.75-.33-.03-.02-.06-.03-.09-.05-.3268459-.1597116-.6643125-.296703-1.01-.41-1.9857332-.6286106-4.136992-.4711142-6.01.44-2.801507 1.3999626-6.098493 1.3999626-8.9 0l-1.54-.77 3.24 29.13.31 2.81c.0589215.507584.4890077.8903608 1 .89h18.72c-5.1010224-2.8280864-8.2698393-8.1974706-8.28-14.03zm-12-11.47c0-1.9329966 1.5670034-3.5 3.5-3.5s3.5 1.5670034 3.5 3.5-1.5670034 3.5-3.5 3.5-3.5-1.5670034-3.5-3.5zm1 7.5c0-.5522847.4477153-1 1-1s1 .4477153 1 1-.4477153 1-1 1-1-.4477153-1-1zm1 5c0-.5522847.4477153-1 1-1s1 .4477153 1 1-.4477153 1-1 1-1-.4477153-1-1z"/><path id="Shape" d="m55.77 54.17c-1.0715863.9052722-2.2933546 1.6159961-3.61 2.1-1.3267008.484675-2.727548.735068-4.14.74-3.1885347-.0069448-6.2446069-1.2761136-8.5-3.53-2.256389-2.253719-3.5260075-5.310874-3.53-8.5v-.01c-.0000967-2.834965 1.0063487-5.5778832 2.84-7.74l-1.43-1.43c-4.7936041 5.5692976-4.484058 13.892166.71 19.09 1.3020408 1.3051334 2.8480422 2.3414641 4.55 3.05h.02v.01c1.6939247.6967831 3.5083682 1.0535557 5.34 1.05h.01c3.3569486.008787 6.6049093-1.1910062 9.15-3.38l.02-.02z"/><path id="Shape" d="m6.04 9.61c-.71065398.14196799-1.36821496.4776702-1.9.97-.48943484.5324478-.82173253 1.1901203-.96 1.9-.07221988.3299004.02853282.673869.26733191.9126681.23879908.2387991.58276766.3395518.91266809.2673319.70987971-.1382675 1.36755222-.4705652 1.9-.96.49232982-.531785.82803201-1.189346.97-1.9.07249243-.3326392-.02922776-.6793078-.26995997-.92004003-.2407322-.24073221-.58740083-.3424524-.92004003-.26995997z"/><path id="Shape" d="m16.07 38.58c-.6333174.4041623-1.3401445.6794171-2.08.81v-.4c0-4.132 1.958-5.958 3.126-6.679.4517666-.29783.5846799-.9009818.2999408-1.3611116-.2847392-.4601298-.8838271-.610302-1.3519408-.3388884-1.6296892 1.0297743-2.8507109 2.5940537-3.454 4.425.076-.329-.143-.766-.6-1.194-.7336932-.6503042-1.622047-1.1013676-2.58-1.31-1.02808399-.1771106-2.07770095-.1906105-3.11-.04-.42442142.0351943-.77998613.3353312-.88592645.7478222-.10594031.412491.0609909.8468208.41592645 1.0821778.83590719.6394697 1.771888 1.1361815 2.77 1.47.94856381.2523738 1.9448363.2661155 2.9.04.4465815-.0723302.8381015-.3389594 1.069-.728-.4130047 1.2540529-.6157408 2.5677827-.6 3.888v.4c-.7474881-.1312383-1.4613655-.4099904-2.1-.82-.40492174-.2598329-.83349392-.4808155-1.28-.66-.99612378-.430533-2.10527636-.5253024-3.16-.27-1.36078442.3936755-2.50205995 1.3254764-3.16 2.58-1.44 2.49-1.7 6.14-.69 9.76 1.64 5.86 6.04 9.84 9.8 8.88.3879446-.1012427.761074-.2525114 1.11-.45.303969-.1619457.6694344-.158178.97.01.3426868.1933734.7091027.3412844 1.09.44 1.3653626.3021803 2.7946716.0657533 3.99-.66l-2.2-19.79c-.089.058-.189.108-.289.168zm-9.63 2.93c-.21.05-.46.31-.69.71-.93360847 2.1143977-1.03713921 4.5027448-.29 6.69.14749051.5299985-.16082067 1.0795967-.69 1.23-.08722553.0279291-.1784235.0414399-.27.04-.44804414.0011103-.84133474-.2979545-.96-.73-1.03-3.68-.42-6.66.48-8.23.39021651-.7872603 1.08300597-1.3826263 1.92-1.65.53485468-.1320871 1.07710658.1879305 1.22.72.0667762.2572811.02837461.5305617-.10672205.7594755s-.35577129.3946234-.61327795.4605245z"/><path id="Shape" d="m9.44 16.58c1.3980719 1.2358544 3.0304455 2.17787 4.8 2.77l-.22-2.02c-.0918535-.8472003.1801921-1.6935752.7484672-2.3285939.568275-.6350188 1.3793711-.9990002 2.2315328-1.0014061h2.17c-.5927138-1.6493686-1.4956225-3.1700568-2.66-4.48-.7815663-.77973061-1.8033255-1.27299368-2.9-1.4-1.2329781.86849369-2.7018865 1.33952133-4.21 1.35-.00384652 1.5122576-.47540062 2.9863008-1.35 4.22.12605786 1.0919742.61562299 2.1098471 1.39 2.89zm5.56-5.58c.5522847 0 1 .4477153 1 1s-.4477153 1-1 1-1-.4477153-1-1 .4477153-1 1-1zm-3 3c.5522847 0 1 .4477153 1 1s-.4477153 1-1 1-1-.4477153-1-1 .4477153-1 1-1z"/></g></g></svg>